<?xml version="1.0" standalone="no"?>
<!DOCTYPE svg PUBLIC "-//W3C//DTD SVG 20010904//EN"
 "http://www.w3.org/TR/2001/REC-SVG-20010904/DTD/svg10.dtd">
<svg version="1.0" xmlns="http://www.w3.org/2000/svg"
 width="855.000000pt" height="449.000000pt" viewBox="0 0 855.000000 449.000000"
 preserveAspectRatio="xMidYMid meet">

<g transform="translate(0.000000,449.000000) scale(0.100000,-0.100000)"
fill="#000000" stroke="none">
<path d="M0 2245 l0 -2245 4275 0 4275 0 0 2245 0 2245 -4275 0 -4275 0 0
-2245z m2965 1100 c840 -31 1292 -45 1835 -55 311 -5 621 -12 690 -15 69 -2
463 -7 875 -10 950 -7 1039 -10 1107 -30 148 -45 190 -99 190 -240 1 -85 -33
-269 -57 -316 -8 -15 -15 -33 -15 -38 0 -12 -59 -170 -120 -321 -21 -52 -46
-115 -55 -140 -31 -85 -68 -160 -78 -160 -10 0 -7 131 9 492 l7 137 -154 3
-154 3 -3 38 -3 37 105 0 c88 0 106 3 106 15 0 12 -18 15 -104 15 l-103 0 -7
38 c-3 20 -6 67 -6 103 l0 66 38 7 c20 3 66 6 102 7 59 1 55 3 -46 14 -60 6
-115 15 -122 19 -6 3 -75 13 -154 21 -79 8 -154 17 -168 20 -45 8 -755 67
-1090 90 -113 8 -257 19 -320 24 -63 6 -153 13 -200 16 -47 3 -177 12 -290 20
-606 44 -832 58 -1430 90 -724 39 -909 51 -918 59 -8 9 109 7 533 -9z m-57
-355 l122 0 -2 -167 -3 -168 -45 0 -45 0 -3 68 -3 67 -59 0 -59 0 -3 -67 -3
-68 -214 -3 c-144 -2 -218 1 -225 8 -7 7 -12 71 -14 160 -3 131 -2 151 12 156
9 4 85 2 169 -2 l152 -9 0 -30 0 -30 -112 -3 -113 -3 0 -74 0 -75 60 0 c58 0
84 15 38 22 -16 2 -24 11 -26 30 -3 25 0 27 51 33 90 11 101 7 108 -45 4 -28
7 -1 7 76 1 66 5 124 10 128 4 4 23 5 42 2 19 -3 90 -6 158 -6z m1288 -35 c3
-19 4 -41 1 -48 -5 -14 -88 -27 -163 -27 -24 0 -34 -5 -34 -16 0 -14 12 -15
99 -9 l99 7 7 -97 c6 -78 5 -99 -6 -106 -8 -5 -76 -9 -151 -9 l-138 0 0 40 0
40 100 0 c81 0 100 3 100 15 0 11 -20 15 -102 17 l-103 3 -5 75 c-3 44 -8 68
-12 58 -6 -16 -22 -18 -118 -18 -91 0 -110 -3 -110 -15 0 -11 11 -15 38 -15
20 0 61 -3 90 -6 46 -6 52 -9 52 -30 0 -23 -2 -24 -90 -24 -81 0 -90 -2 -90
-19 0 -24 26 -31 127 -31 79 0 83 -1 89 -24 15 -61 14 -61 -161 -61 l-160 0
-3 163 -2 162 275 -2 c151 0 278 2 282 5 3 4 23 7 44 7 36 0 39 -2 45 -35z
m707 -123 c5 -85 6 -160 3 -168 -4 -11 -43 -14 -210 -14 -113 0 -207 4 -210 8
-2 4 -8 74 -12 156 -8 165 -8 166 57 166 45 0 49 -11 49 -127 l0 -83 35 0 35
0 0 60 0 60 40 0 40 0 0 -60 0 -60 35 0 35 0 0 111 0 110 48 -3 47 -3 8 -153z
m345 143 c9 -3 12 -19 10 -47 l-3 -43 -112 -3 c-91 -2 -113 -5 -113 -17 0 -11
12 -15 44 -15 24 0 64 -3 90 -6 40 -6 46 -10 46 -30 0 -26 0 -26 -112 -24 -62
1 -68 0 -68 -19 0 -22 32 -29 150 -34 l65 -2 0 -40 0 -40 -160 0 -160 0 -3
155 c-1 85 -1 159 1 165 4 10 296 10 325 0z m125 -98 l-6 -114 39 -6 c21 -4
52 -7 67 -7 27 0 28 -1 25 -47 l-3 -48 -110 0 -110 0 -3 168 -2 167 54 0 55 0
-6 -113z m427 63 l0 -50 -95 0 -95 0 0 -60 0 -60 94 0 94 0 7 -50 c4 -27 4
-54 0 -60 -4 -6 -59 -10 -145 -10 l-139 0 -5 43 c-9 72 -15 284 -9 291 4 3 71
6 150 6 l143 0 0 -50z m1078 40 l142 0 0 -50 0 -50 -115 0 c-96 0 -115 -3
-115 -15 0 -11 12 -15 44 -15 24 0 64 -3 90 -6 43 -6 47 -9 44 -33 -3 -26 -4
-26 -85 -24 -66 2 -82 -1 -87 -14 -4 -9 -4 -18 -1 -22 4 -3 53 -7 111 -9 l104
-4 0 -44 0 -44 -162 2 -163 3 -3 155 c-1 85 0 160 3 168 3 9 13 12 28 8 12 -3
86 -6 165 -6z m-4941 -88 l58 -76 3 77 3 77 44 0 45 0 0 -160 0 -160 -43 0
c-50 0 -57 6 -140 123 l-56 79 -3 -99 -3 -98 -55 0 -55 0 3 150 c1 83 4 155 6
160 2 6 31 9 69 7 l65 -4 59 -76z m4227 -69 c4 -86 3 -160 -2 -165 -5 -5 -82
-7 -173 -6 l-164 3 -3 157 -3 157 83 4 c46 1 122 4 169 5 l86 2 7 -157z m494
133 c2 -3 7 -73 10 -156 l5 -151 -49 3 -49 3 -3 113 -3 112 -59 0 -59 0 2
-112 2 -113 -35 0 -35 0 0 118 1 117 -48 0 -48 0 0 -103 c0 -124 -8 -140 -65
-135 l-40 3 -3 150 c-1 82 -1 154 1 160 4 10 464 1 475 -9z m-4950 -1 c2 -2 6
-71 9 -155 l6 -151 -49 3 -49 3 -3 113 -3 112 -59 0 -59 0 2 -112 2 -113 -35
0 -35 0 1 118 1 117 -49 0 -48 0 0 -107 c0 -60 -4 -114 -9 -121 -5 -9 -24 -12
-52 -10 l-44 3 -3 159 -3 159 238 -7 c131 -4 239 -9 241 -11z m1814 -3 c5 -6
12 -231 9 -290 -1 -9 -15 -12 -48 -10 l-48 3 -3 113 -3 112 -54 0 -55 0 0
-110 c0 -108 0 -110 -24 -116 -14 -3 -30 -3 -35 1 -7 4 -11 51 -11 121 l0 114
-50 0 -49 0 -3 -117 -3 -118 -45 0 -45 0 -6 60 c-4 33 -7 105 -8 159 l-1 99
238 -7 c130 -4 240 -10 244 -14z m-2365 -104 c18 -57 39 -137 48 -178 8 -41
38 -144 66 -229 59 -181 69 -225 148 -651 78 -423 96 -476 172 -515 52 -27
197 -37 469 -30 818 18 1182 28 1805 50 925 32 1161 39 1154 31 -7 -8 -200
-20 -784 -51 -656 -35 -1536 -84 -1615 -90 -36 -3 -135 -9 -220 -15 -85 -6
-252 -17 -370 -26 -118 -8 -281 -18 -361 -21 -251 -10 -260 -1 -328 315 -117
550 -156 781 -166 987 -4 72 -20 211 -36 309 -16 99 -29 187 -29 198 0 42 17
12 47 -84z m3748 -520 c3 -7 1 -65 -3 -128 l-7 -115 -39 -3 c-21 -2 -42 0 -47
5 -4 4 -11 60 -15 125 l-7 116 24 5 c49 9 90 7 94 -5z m-1079 -69 c25 -33 50
-57 53 -52 4 4 25 32 46 61 24 35 43 51 52 48 8 -3 28 -6 44 -6 16 0 29 -5 29
-12 0 -6 -27 -52 -59 -103 -52 -79 -60 -99 -63 -146 l-3 -54 -55 0 -55 0 -5
60 c-5 52 -14 72 -64 148 -78 121 -78 117 -18 117 50 0 51 -1 98 -61z m589
-93 c4 -85 4 -159 1 -165 -8 -12 -301 -16 -330 -5 -14 5 -16 28 -16 155 l0
148 33 6 c33 5 111 10 233 13 l72 2 7 -154z m116 144 c17 -9 19 -22 19 -105
l0 -95 55 0 55 0 0 100 0 99 34 6 c18 4 44 5 57 3 l24 -3 0 -160 0 -160 -159
-3 c-102 -2 -163 1 -170 8 -11 11 -22 279 -12 305 6 18 67 21 97 5z m374 -271
c9 -39 -6 -50 -60 -47 -38 3 -40 4 -43 41 l-3 37 50 0 c47 0 50 -1 56 -31z
m-2995 -164 c0 -8 -9 -15 -20 -15 -18 0 -20 -7 -20 -65 0 -58 -2 -65 -20 -65
-18 0 -20 7 -20 64 0 59 -2 65 -22 68 -12 2 -23 9 -26 16 -3 9 14 12 62 12 52
0 66 -3 66 -15z m70 -15 c0 -27 3 -30 30 -30 27 0 30 3 30 30 0 23 4 30 20 30
18 0 20 -7 20 -80 0 -73 -2 -80 -20 -80 -16 0 -20 7 -20 35 0 32 -2 35 -30 35
-28 0 -30 -3 -30 -35 0 -28 -4 -35 -20 -35 -18 0 -20 7 -20 80 0 73 2 80 20
80 16 0 20 -7 20 -30z m260 15 c0 -11 -11 -15 -40 -15 -33 0 -40 -3 -40 -20 0
-16 7 -20 30 -20 20 0 30 -5 30 -15 0 -10 -10 -15 -30 -15 -20 0 -30 -5 -30
-15 0 -11 11 -15 40 -15 29 0 40 -4 40 -15 0 -12 -13 -15 -60 -15 l-60 0 0 80
0 80 60 0 c47 0 60 -3 60 -15z m247 -7 c28 -32 34 -54 22 -85 -13 -36 -38 -52
-77 -53 -43 0 -82 38 -82 80 0 69 92 107 137 58z m183 7 c0 -11 -11 -15 -40
-15 -33 0 -40 -3 -40 -20 0 -16 7 -20 30 -20 20 0 30 -5 30 -15 0 -10 -10 -15
-30 -15 -27 0 -30 -3 -30 -30 0 -23 -4 -30 -20 -30 -18 0 -20 7 -20 80 l0 80
60 0 c47 0 60 -3 60 -15z m150 0 c0 -11 -11 -15 -40 -15 -33 0 -40 -3 -40 -20
0 -16 7 -20 30 -20 20 0 30 -5 30 -15 0 -10 -10 -15 -30 -15 -27 0 -30 -3 -30
-30 0 -23 -4 -30 -20 -30 -18 0 -20 7 -20 80 l0 80 60 0 c47 0 60 -3 60 -15z
m70 -65 c0 -73 -2 -80 -20 -80 -18 0 -20 7 -20 80 0 73 2 80 20 80 18 0 20 -7
20 -80z m168 57 c3 -16 -1 -18 -26 -12 -49 10 -76 -30 -51 -77 9 -16 17 -19
46 -13 30 5 34 4 31 -12 -6 -30 -72 -30 -103 1 -54 54 -13 140 63 134 26 -2
38 -8 40 -21z m151 -44 c13 -38 26 -74 29 -80 6 -19 -35 -16 -42 2 -3 8 -17
15 -31 15 -14 0 -28 -7 -31 -15 -5 -13 -44 -22 -44 -10 0 2 9 28 21 57 12 29
25 63 30 76 17 43 43 27 68 -45z m101 3 l0 -65 32 -3 c17 -2 33 -9 36 -15 3
-9 -12 -13 -52 -13 l-56 0 0 80 c0 73 2 80 20 80 18 0 20 -7 20 -64z m299 55
c22 -14 3 -31 -28 -25 -24 5 -32 1 -46 -20 -16 -24 -16 -28 -1 -51 20 -31 56
-34 56 -5 0 11 7 20 16 20 11 0 14 -8 12 -32 -3 -30 -6 -33 -42 -36 -52 -4
-86 27 -86 79 0 29 6 42 26 58 28 22 69 27 93 12z m160 -58 c13 -38 26 -74 29
-80 6 -19 -35 -16 -42 2 -3 8 -17 15 -31 15 -14 0 -28 -7 -31 -15 -5 -13 -44
-22 -44 -10 0 2 9 28 21 57 12 29 25 63 30 76 17 43 43 27 68 -45z m132 20
l15 -48 15 45 c15 43 41 63 59 43 4 -4 11 -41 14 -80 7 -69 6 -73 -13 -73 -15
0 -21 6 -21 23 0 37 -12 40 -26 7 -18 -41 -40 -38 -55 8 l-13 37 -6 -35 c-3
-22 -11 -36 -22 -38 -20 -4 -23 27 -12 112 6 39 10 46 29 46 17 0 25 -10 36
-47z m259 32 c0 -11 -11 -15 -40 -15 -33 0 -40 -3 -40 -20 0 -16 7 -20 30 -20
20 0 30 -5 30 -15 0 -10 -10 -15 -30 -15 -20 0 -30 -5 -30 -15 0 -11 11 -15
40 -15 29 0 40 -4 40 -15 0 -12 -13 -15 -60 -15 l-60 0 0 80 0 80 60 0 c47 0
60 -3 60 -15z m215 9 c25 -10 47 -62 40 -95 -9 -39 -40 -59 -92 -59 l-43 0 0
80 0 80 39 0 c22 0 47 -3 56 -6z m195 -9 c0 -11 -11 -15 -40 -15 -33 0 -40 -3
-40 -20 0 -16 7 -20 30 -20 20 0 30 -5 30 -15 0 -10 -10 -15 -30 -15 -20 0
-30 -5 -30 -15 0 -11 11 -15 40 -15 29 0 40 -4 40 -15 0 -12 -13 -15 -60 -15
l-60 0 0 80 0 80 60 0 c47 0 60 -3 60 -15z m138 3 c17 -17 15 -64 -4 -82 -8
-9 -26 -16 -40 -16 -19 0 -24 -5 -24 -25 0 -18 -5 -25 -20 -25 -18 0 -20 7
-20 80 l0 80 48 0 c26 0 53 -5 60 -12z m151 -55 c13 -38 26 -74 29 -80 6 -19
-35 -16 -42 2 -3 8 -17 15 -31 15 -14 0 -28 -7 -31 -15 -5 -13 -44 -22 -44
-10 0 2 9 28 21 57 12 29 25 63 30 76 17 43 43 27 68 -45z m177 42 c13 -21 14
-30 5 -53 -8 -20 -9 -36 -2 -55 9 -24 8 -27 -9 -27 -12 0 -25 10 -32 25 -6 14
-17 25 -25 25 -7 0 -13 -11 -13 -25 0 -18 -5 -25 -20 -25 -18 0 -20 7 -20 80
l0 80 50 0 c42 0 52 -4 66 -25z m154 10 c0 -8 -9 -15 -20 -15 -18 0 -20 -7
-20 -65 0 -58 -2 -65 -20 -65 -18 0 -20 7 -20 65 0 58 -2 65 -20 65 -11 0 -20
7 -20 15 0 12 13 15 60 15 47 0 60 -3 60 -15z m107 -32 l19 -47 13 47 c11 38
18 47 36 47 22 0 24 -6 30 -75 4 -42 5 -79 2 -82 -15 -14 -37 9 -38 39 l-1 33
-15 -37 c-19 -46 -40 -49 -54 -8 -6 17 -15 30 -20 30 -5 0 -9 -13 -9 -30 0
-23 -4 -30 -20 -30 -19 0 -20 4 -14 68 7 86 10 92 32 92 14 0 25 -14 39 -47z
m253 32 c0 -10 -11 -15 -35 -15 -28 0 -35 -4 -35 -20 0 -16 7 -20 30 -20 20 0
30 -5 30 -15 0 -10 -10 -15 -30 -15 -20 0 -30 -5 -30 -15 0 -11 11 -15 40 -15
29 0 40 -4 40 -15 0 -12 -13 -15 -60 -15 l-60 0 0 80 0 80 55 0 c42 0 55 -3
55 -15z m107 -27 l28 -42 3 42 c3 34 7 42 23 42 17 0 19 -7 19 -80 0 -73 -2
-80 -20 -80 -12 0 -30 16 -47 42 l-28 42 -3 -42 c-3 -34 -7 -42 -23 -42 -17 0
-19 7 -19 80 0 73 2 80 20 80 12 0 30 -16 47 -42z m223 27 c0 -8 -9 -15 -20
-15 -18 0 -20 -7 -20 -65 0 -58 -2 -65 -20 -65 -18 0 -20 7 -20 65 0 58 -2 65
-20 65 -11 0 -20 7 -20 15 0 12 13 15 60 15 47 0 60 -3 60 -15z m255 -10 c16
-15 25 -36 25 -55 0 -71 -91 -107 -140 -55 -72 77 41 185 115 110z m175 10 c0
-10 -11 -15 -35 -15 -28 0 -35 -4 -35 -19 0 -14 8 -21 27 -23 39 -4 42 -28 4
-28 -28 0 -31 -3 -31 -30 0 -23 -4 -30 -20 -30 -18 0 -20 7 -20 80 l0 80 55 0
c42 0 55 -3 55 -15z m190 -25 c7 -22 16 -40 20 -40 4 0 12 18 19 40 10 33 16
40 36 40 22 0 25 -5 25 -34 0 -18 3 -54 6 -80 6 -42 5 -46 -15 -46 -17 0 -21
6 -21 36 0 41 -15 37 -25 -6 -9 -42 -36 -38 -57 8 l-16 37 -1 -37 c-1 -31 -5
-38 -21 -38 -22 0 -23 6 -14 99 6 54 9 61 29 61 17 0 25 -9 35 -40z m212 -3
l28 -42 0 43 c0 35 3 42 20 42 18 0 20 -7 20 -80 0 -70 -2 -80 -17 -80 -10 0
-31 20 -48 48 l-30 47 -3 -47 c-3 -40 -6 -48 -23 -48 -17 0 -19 7 -19 80 0 76
1 80 23 80 15 0 31 -13 49 -43z m-1852 -242 c0 -11 -12 -15 -45 -15 -38 0 -45
-3 -45 -20 0 -16 7 -20 35 -20 24 0 35 -5 35 -15 0 -10 -11 -15 -35 -15 -31 0
-35 -3 -35 -25 0 -23 4 -25 45 -25 33 0 45 -4 45 -15 0 -12 -14 -15 -65 -15
l-65 0 0 90 0 90 65 0 c51 0 65 -3 65 -15z m-1240 -75 c0 -73 -2 -80 -20 -80
-18 0 -20 7 -20 80 0 73 2 80 20 80 18 0 20 -7 20 -80z m112 37 l28 -42 0 43
c0 39 2 43 23 40 20 -3 22 -9 25 -80 3 -77 2 -78 -21 -78 -18 0 -33 12 -56 48
l-31 47 0 -47 c0 -41 -3 -48 -20 -48 -18 0 -20 7 -20 80 0 76 1 80 23 80 15 0
31 -13 49 -43z m227 26 c12 -10 24 -35 27 -55 9 -53 -27 -88 -91 -88 l-45 0 0
80 0 80 44 0 c27 0 52 -7 65 -17z m103 -45 c3 -55 5 -63 23 -63 18 0 20 8 23
63 3 59 5 63 25 60 19 -3 22 -10 25 -54 4 -63 -23 -104 -69 -104 -48 0 -69 30
-69 100 0 53 2 60 20 60 16 0 19 -8 22 -62z m242 42 c17 -17 -8 -34 -32 -21
-27 14 -32 14 -32 -2 0 -7 16 -19 34 -25 42 -16 55 -46 30 -73 -20 -23 -72
-25 -100 -5 -26 20 -6 43 24 27 28 -15 42 -14 42 3 0 8 -13 19 -29 24 -16 6
-34 20 -40 31 -17 31 20 65 62 57 17 -4 36 -11 41 -16z m156 -5 c0 -8 -9 -15
-20 -15 -18 0 -20 -7 -20 -60 0 -53 -2 -60 -20 -60 -18 0 -20 7 -20 59 0 54
-2 60 -22 63 -12 2 -23 9 -26 16 -3 9 14 12 62 12 52 0 66 -3 66 -15z m154 -7
c8 -13 8 -26 0 -46 -9 -22 -8 -35 3 -56 13 -25 12 -26 -10 -26 -16 0 -28 9
-35 25 -6 14 -16 25 -22 25 -5 0 -10 -11 -10 -25 0 -18 -5 -25 -20 -25 -18 0
-20 7 -20 76 l0 75 51 -3 c36 -2 55 -8 63 -20z m76 -48 c0 -38 1 -73 3 -77 1
-5 -8 -9 -20 -11 -22 -3 -23 -1 -23 77 0 74 2 81 20 81 18 0 20 -7 20 -70z
m305 49 c16 -16 -11 -34 -30 -19 -12 10 -19 10 -27 2 -9 -9 -4 -15 20 -23 18
-6 37 -19 42 -29 13 -24 13 -26 -6 -44 -19 -20 -78 -21 -93 -2 -16 19 0 29 32
20 40 -9 41 14 2 30 -46 20 -55 44 -25 68 24 19 63 18 85 -3z m-945 -1071 l11
-33 14 33 c16 37 30 41 39 10 9 -35 7 -78 -3 -78 -5 0 -11 12 -13 28 l-4 27
-12 -27 c-6 -16 -16 -28 -21 -28 -5 0 -14 12 -19 28 l-10 27 -1 -27 c-1 -26
-3 -26 -58 -25 -55 2 -58 3 -58 27 0 20 6 26 27 28 21 3 27 -2 31 -20 5 -23 5
-23 4 1 -3 36 -31 50 -56 27 -12 -11 -21 -27 -21 -36 0 -26 35 -53 59 -45 12
4 21 2 21 -4 0 -6 -13 -11 -30 -11 -34 0 -70 31 -70 60 0 53 84 81 114 38 l16
-22 0 27 c0 38 25 35 40 -5z m124 0 l26 -33 0 33 c0 17 5 32 10 32 6 0 10 -10
10 -22 l0 -22 16 22 c16 23 67 31 79 11 4 -6 -3 -9 -20 -7 -34 4 -55 -23 -39
-49 16 -26 31 -26 38 -1 6 21 7 22 20 6 12 -16 15 -14 29 22 8 22 20 40 25 40
5 0 18 -21 28 -47 l19 -48 5 44 c6 55 25 63 43 20 l13 -33 13 32 c21 50 41 41
41 -18 0 -27 -4 -50 -10 -50 -5 0 -10 12 -10 28 l-1 27 -15 -27 c-8 -16 -17
-28 -19 -28 -2 0 -11 12 -19 28 l-15 27 -1 -27 c0 -23 -4 -28 -25 -28 -14 0
-25 5 -25 10 0 12 -37 13 -44 2 -3 -5 -25 -9 -50 -10 -36 -2 -48 2 -60 20
l-16 22 0 -22 c0 -32 -21 -27 -47 11 l-23 32 0 -33 c0 -17 -4 -32 -10 -32 -5
0 -10 23 -10 50 0 28 4 50 9 50 5 0 21 -15 35 -32z m512 20 c4 -6 -1 -8 -14
-4 -30 10 -37 -12 -7 -24 30 -11 44 -39 25 -50 -7 -5 -44 -9 -82 -9 l-68 0 0
49 0 49 70 0 c38 -1 73 -5 76 -11z"/>
<path d="M7213 2883 c-68 -3 -83 -7 -83 -20 0 -14 10 -15 68 -10 37 4 81 7 98
7 21 0 31 5 31 15 0 8 -7 14 -16 13 -9 -1 -53 -4 -98 -5z"/>
<path d="M7341 2774 c1 -32 5 -72 9 -89 5 -18 6 5 3 55 -6 99 -14 120 -12 34z"/>
<path d="M2810 2895 c0 -24 2 -25 61 -25 57 0 60 1 57 23 -3 19 -10 22 -60 25
-56 3 -58 2 -58 -23z"/>
<path d="M5953 2893 c-33 -4 -33 -5 -33 -58 0 -83 2 -85 79 -85 l66 0 -3 75
-4 75 -36 -2 c-20 0 -52 -3 -69 -5z"/>
<path d="M4183 2233 c-14 -5 -16 -46 -7 -105 l7 -38 68 0 69 0 0 59 c0 88 -3
91 -69 90 -31 0 -62 -3 -68 -6z"/>
<path d="M2406 1844 c-9 -8 -16 -24 -16 -34 0 -22 26 -50 45 -50 8 0 22 11 31
25 15 23 15 27 0 50 -19 29 -38 32 -60 9z"/>
<path d="M3157 1811 c-3 -14 0 -21 9 -21 16 0 18 9 5 28 -6 10 -10 9 -14 -7z"/>
<path d="M3717 1811 c-3 -14 0 -21 9 -21 16 0 18 9 5 28 -6 10 -10 9 -14 -7z"/>
<path d="M4320 1810 c0 -37 4 -50 14 -50 20 0 46 28 46 50 0 22 -26 50 -46 50
-10 0 -14 -13 -14 -50z"/>
<path d="M4640 1834 c0 -33 33 -30 38 4 3 17 -2 22 -17 22 -16 0 -21 -6 -21
-26z"/>
<path d="M4807 1811 c-3 -14 0 -21 9 -21 16 0 18 9 5 28 -6 10 -10 9 -14 -7z"/>
<path d="M4960 1835 c0 -22 4 -26 23 -23 14 2 22 10 22 23 0 13 -8 21 -22 23
-19 3 -23 -1 -23 -23z"/>
<path d="M6044 1835 c-15 -23 -15 -27 0 -50 18 -28 28 -30 57 -15 12 7 19 21
19 38 0 54 -47 70 -76 27z"/>
<path d="M3890 1530 c0 -37 4 -50 14 -50 20 0 46 28 46 50 0 22 -26 50 -46 50
-10 0 -14 -13 -14 -50z"/>
<path d="M4540 1549 c0 -25 33 -22 38 4 2 12 -3 17 -17 17 -15 0 -21 -6 -21
-21z"/>
<path d="M3936 481 c-4 -7 -5 -15 -2 -18 9 -9 19 4 14 18 -4 11 -6 11 -12 0z"/>
<path d="M4360 486 c0 -9 5 -16 10 -16 6 0 10 4 10 9 0 6 -4 13 -10 16 -5 3
-10 -1 -10 -9z"/>
<path d="M4560 516 c0 -8 12 -17 28 -19 l27 -4 -27 -2 c-21 -1 -28 -6 -28 -21
0 -18 5 -20 57 -17 64 4 77 17 33 34 -16 6 -30 18 -30 27 0 11 -9 16 -30 16
-19 0 -30 -5 -30 -14z"/>
</g>
</svg>
